<svg xmlns="http://www.w3.org/2000/svg" xmlns:xlink="http://www.w3.org/1999/xlink" width="50" zoomAndPan="magnify" viewBox="0 0 37.5 37.499999" height="50" preserveAspectRatio="xMidYMid meet" version="1.0"><defs><g/></defs><g fill="#ff2424" fill-opacity="1"><g transform="translate(3.328125, 32.350009)"><g><path d="M 15.730469 -20.839844 C 11.3125 -18.976562 9.671875 -5.035156 7.847656 -1.058594 C 7.589844 0.253906 10.984375 0.4375 11.605469 -0.472656 C 12.226562 -1.859375 12.917969 -5.183594 13.832031 -8.503906 C 20.691406 -6.460938 26.203125 -9.707031 27.1875 -15.765625 C 28.246094 -22.078125 22.589844 -25.292969 16.859375 -25.363281 C 10.402344 -25.4375 4.195312 -22.296875 4.195312 -16.898438 C 4.195312 -15.183594 5 -13.648438 6.460938 -12.664062 C 7.445312 -12.226562 9.085938 -13.503906 8.867188 -14.269531 C 6.132812 -18.796875 11.203125 -22.882812 16.898438 -22.699219 C 20.472656 -22.554688 23.792969 -20.402344 23.136719 -16.128906 C 22.480469 -11.714844 18.976562 -9.597656 14.453125 -10.839844 C 15.511719 -14.742188 16.679688 -18.976562 18.320312 -19.890625 C 18.757812 -20.472656 16.859375 -21.277344 15.730469 -20.839844 Z M 15.730469 -20.839844 "/></g></g></g></svg>